<svg width="32" height="32" viewBox="0 0 32 32" fill="none" xmlns="http://www.w3.org/2000/svg">
  <rect width="32" height="32" rx="6" fill="#2563EB"/>
  <path d="M16 5C12.134 5 9 8.134 9 12C9 15.866 12.134 19 16 19C17.105 19 18.134 18.685 19 18.142V16C19 13.791 17.209 12 15 12C14.448 12 14 11.552 14 11C14 10.448 14.448 10 15 10C15.552 10 16 10.448 16 11V12C16 14.209 17.791 16 20 16H20.142C20.685 15.134 21 14.105 21 13C21 8.582 17.418 5 16 5Z" fill="white"/>
  <circle cx="13" cy="9" r="1.5" fill="#EF4444"/>
  <circle cx="18" cy="8" r="1" fill="#F59E0B"/>
  <circle cx="19" cy="12" r="1" fill="#10B981"/>
  <circle cx="12" cy="13" r="1" fill="#8B5CF6"/>
</svg>