<svg width="200" height="60" viewBox="0 0 200 60" fill="none" xmlns="http://www.w3.org/2000/svg">
  <!-- Paint Palette Icon -->
  <g id="palette">
    <path d="M20 12C14.477 12 10 16.477 10 22C10 27.523 14.477 32 20 32C22.761 32 25.267 30.939 27.071 29.222C27.976 28.359 28.5 27.159 28.5 25.9V23.5C28.5 20.462 26.038 18 23 18C21.895 18 20.5 18.895 20.5 20C20.5 21.105 21.895 22 23 22C24.105 22 25.5 21.105 25.5 20V22.5C25.5 24.433 23.933 26 22 26C18.686 26 16 23.314 16 20C16 16.686 18.686 14 22 14C25.314 14 28 16.686 28 20V25.9C28 28.316 26.867 30.578 24.929 32.071C22.562 34.061 21.331 35.039 20 38C18.669 35.039 17.438 34.061 15.071 32.071C13.133 30.578 12 28.316 12 25.9V22C12 17.582 15.582 14 20 14Z" fill="#2563EB"/>
    <circle cx="20" cy="20" r="2" fill="#EF4444"/>
    <circle cx="26" cy="16" r="1.5" fill="#F59E0B"/>
    <circle cx="24" cy="24" r="1.5" fill="#10B981"/>
    <circle cx="16" cy="18" r="1.5" fill="#8B5CF6"/>
  </g>
  
  <!-- Paintbox Text -->
  <g id="text">
    <text x="45" y="26" font-family="Inter, system-ui, sans-serif" font-size="20" font-weight="700" fill="#1F2937">Paintbox</text>
    <text x="45" y="42" font-family="Inter, system-ui, sans-serif" font-size="12" font-weight="500" fill="#6B7280">Professional Estimation</text>
  </g>
  
  <!-- Subtle accent line -->
  <line x1="45" y1="32" x2="140" y2="32" stroke="#E5E7EB" stroke-width="1"/>
</svg>